<svg xmlns="http://www.w3.org/2000/svg" width="21.673" height="27.339" viewBox="0 0 21.673 27.339"><defs><style>.a{fill:#686767;}</style></defs><g transform="translate(-53.056)"><g transform="translate(54.79 3.808)"><g transform="translate(0)"><path class="a" d="M94.506,71.32A8.989,8.989,0,0,0,85.527,80.3v9.536h1.858V80.3a7.121,7.121,0,0,1,14.242,0v9.536h1.858V80.3A8.989,8.989,0,0,0,94.506,71.32Z" transform="translate(-85.527 -71.32)"/></g></g><g transform="translate(53.056 21.394)"><g transform="translate(0)"><path class="a" d="M73.8,400.67H53.985a.929.929,0,1,0,0,1.858H73.8a.929.929,0,1,0,0-1.858Z" transform="translate(-53.056 -400.67)"/></g></g><g transform="translate(60.92)"><g transform="translate(0)"><path class="a" d="M203.184,0a2.848,2.848,0,1,0,2.848,2.848A2.852,2.852,0,0,0,203.184,0Zm0,3.839a.991.991,0,1,1,.991-.991A1,1,0,0,1,203.184,3.839Z" transform="translate(-200.336)"/></g></g><g transform="translate(60.425 22.323)"><g transform="translate(0)"><path class="a" d="M196.011,418.066v1.61a1.548,1.548,0,0,1-3.1,0v-1.61h-1.858v1.61a3.406,3.406,0,0,0,6.812,0v-1.61Z" transform="translate(-191.057 -418.066)"/></g></g></g></svg>