<svg xmlns="http://www.w3.org/2000/svg" xmlns:xlink="http://www.w3.org/1999/xlink" width="36.767" height="36.767" viewBox="0 0 36.767 36.767"><defs><style>.a{fill:#0090ff;}.b{filter:url(#q);}.c{filter:url(#o);}.d{filter:url(#m);}.e{filter:url(#k);}.f{filter:url(#i);}.g{filter:url(#g);}.h{filter:url(#e);}.i{filter:url(#c);}.j{filter:url(#a);}</style><filter id="a" x="0" y="1.282" width="13.769" height="18.82" filterUnits="userSpaceOnUse"><feOffset input="SourceAlpha"/><feGaussianBlur stdDeviation="1" result="b"/><feFlood flood-color="#0090ff"/><feComposite operator="in" in2="b"/><feComposite in="SourceGraphic"/></filter><filter id="c" x="22.999" y="1.282" width="13.769" height="18.82" filterUnits="userSpaceOnUse"><feOffset input="SourceAlpha"/><feGaussianBlur stdDeviation="1" result="d"/><feFlood flood-color="#0090ff"/><feComposite operator="in" in2="d"/><feComposite in="SourceGraphic"/></filter><filter id="e" x="7.692" y="0" width="21.384" height="18.82" filterUnits="userSpaceOnUse"><feOffset input="SourceAlpha"/><feGaussianBlur stdDeviation="1" result="f"/><feFlood flood-color="#0090ff"/><feComposite operator="in" in2="f"/><feComposite in="SourceGraphic"/></filter><filter id="g" x="2.384" y="16.384" width="11" height="11" filterUnits="userSpaceOnUse"><feOffset input="SourceAlpha"/><feGaussianBlur stdDeviation="1" result="h"/><feFlood flood-color="#0090ff"/><feComposite operator="in" in2="h"/><feComposite in="SourceGraphic"/></filter><filter id="i" x="0" y="23.076" width="14.551" height="11.128" filterUnits="userSpaceOnUse"><feOffset input="SourceAlpha"/><feGaussianBlur stdDeviation="1" result="j"/><feFlood flood-color="#0090ff"/><feComposite operator="in" in2="j"/><feComposite in="SourceGraphic"/></filter><filter id="k" x="23.384" y="16.384" width="11" height="11" filterUnits="userSpaceOnUse"><feOffset input="SourceAlpha"/><feGaussianBlur stdDeviation="1" result="l"/><feFlood flood-color="#0090ff"/><feComposite operator="in" in2="l"/><feComposite in="SourceGraphic"/></filter><filter id="m" x="22.217" y="23.076" width="14.551" height="11.128" filterUnits="userSpaceOnUse"><feOffset input="SourceAlpha"/><feGaussianBlur stdDeviation="1" result="n"/><feFlood flood-color="#0090ff"/><feComposite operator="in" in2="n"/><feComposite in="SourceGraphic"/></filter><filter id="o" x="11.538" y="14.743" width="13.692" height="13.692" filterUnits="userSpaceOnUse"><feOffset input="SourceAlpha"/><feGaussianBlur stdDeviation="1" result="p"/><feFlood flood-color="#0090ff"/><feComposite operator="in" in2="p"/><feComposite in="SourceGraphic"/></filter><filter id="q" x="8.333" y="24.357" width="20.102" height="12.41" filterUnits="userSpaceOnUse"><feOffset input="SourceAlpha"/><feGaussianBlur stdDeviation="1" result="r"/><feFlood flood-color="#0090ff"/><feComposite operator="in" in2="r"/><feComposite in="SourceGraphic"/></filter></defs><g transform="translate(3 3)"><g class="j" transform="matrix(1, 0, 0, 1, -3, -3)"><path class="a" d="M5.769,7.73V1.961A3.413,3.413,0,0,1,5.9,1H2.243A2.254,2.254,0,0,0,0,3.243V9.012a2.254,2.254,0,0,0,2.243,2.243h.474l1.641,2.179a.99.99,0,0,0,.731.385h.038a.912.912,0,0,0,.718-.333l1.923-2.192A4.212,4.212,0,0,1,5.769,7.73Z" transform="translate(3 3.28)"/></g><g class="i" transform="matrix(1, 0, 0, 1, -3, -3)"><path class="a" d="M23.465,1H19.812a3.413,3.413,0,0,1,.128.961V7.73a4.212,4.212,0,0,1-2,3.564l1.923,2.192a.912.912,0,0,0,.718.333h.038a.99.99,0,0,0,.731-.385l1.628-2.179h.487a2.254,2.254,0,0,0,2.243-2.243V3.243A2.254,2.254,0,0,0,23.465,1Z" transform="translate(8.06 3.28)"/></g><g class="h" transform="matrix(1, 0, 0, 1, -3, -3)"><path class="a" d="M13.692,12.82h-.036a.965.965,0,0,1-.733-.385l-1.635-2.179H8.243A2.246,2.246,0,0,1,6,8.012V2.243A2.246,2.246,0,0,1,8.243,0h10.9a2.246,2.246,0,0,1,2.243,2.243V8.012a2.246,2.246,0,0,1-2.243,2.243H16.371l-1.956,2.236A.959.959,0,0,1,13.692,12.82Z" transform="translate(4.69 3)"/></g><g class="g" transform="matrix(1, 0, 0, 1, -3, -3)"><circle class="a" cx="2.5" cy="2.5" r="2.5" transform="translate(5.38 19.38)"/></g><g class="f" transform="matrix(1, 0, 0, 1, -3, -3)"><path class="a" d="M8.551,18.513A5.372,5.372,0,0,0,6.41,22.807v.32H.961A.968.968,0,0,1,0,22.166v-.641A3.523,3.523,0,0,1,3.525,18h3.2A3.5,3.5,0,0,1,8.551,18.513Z" transform="translate(3 8.08)"/></g><g class="e" transform="matrix(1, 0, 0, 1, -3, -3)"><circle class="a" cx="2.5" cy="2.5" r="2.5" transform="translate(26.38 19.38)"/></g><g class="d" transform="matrix(1, 0, 0, 1, -3, -3)"><path class="a" d="M25.881,21.525v.641a.968.968,0,0,1-.961.961H19.471v-.32a5.372,5.372,0,0,0-2.141-4.295A3.5,3.5,0,0,1,19.15,18h3.2A3.523,3.523,0,0,1,25.881,21.525Z" transform="translate(7.89 8.08)"/></g><g class="c" transform="matrix(1, 0, 0, 1, -3, -3)"><circle class="a" cx="3.846" cy="3.846" r="3.846" transform="translate(14.54 17.74)"/></g><g class="b" transform="matrix(1, 0, 0, 1, -3, -3)"><path class="a" d="M17.076,19H10.025A3.528,3.528,0,0,0,6.5,22.525v1.923a.962.962,0,0,0,.961.961H19.64a.962.962,0,0,0,.961-.961V22.525A3.528,3.528,0,0,0,17.076,19Z" transform="translate(4.83 8.36)"/></g></g></svg>