<svg xmlns="http://www.w3.org/2000/svg" width="45.3" height="45.3" viewBox="0 0 45.3 45.3"><defs><style>.a{fill:none;stroke:#707070;stroke-width:1.3px;}</style></defs><g transform="translate(0.65 0.65)"><path class="a" d="M8.25,10.625V2.375A4.881,4.881,0,0,1,8.433,1H3.208A3.224,3.224,0,0,0,0,4.208v8.25a3.224,3.224,0,0,0,3.208,3.208h.678l2.347,3.117a1.415,1.415,0,0,0,1.045.55h.055a1.3,1.3,0,0,0,1.027-.477l2.75-3.135A6.024,6.024,0,0,1,8.25,10.625Z" transform="translate(0 0.833)"/><path class="a" d="M25.842,1H20.617A4.881,4.881,0,0,1,20.8,2.375v8.25a6.024,6.024,0,0,1-2.86,5.1l2.75,3.135a1.3,1.3,0,0,0,1.027.477h.055a1.415,1.415,0,0,0,1.045-.55l2.328-3.117h.7a3.224,3.224,0,0,0,3.208-3.208V4.208A3.224,3.224,0,0,0,25.842,1Z" transform="translate(14.95 0.833)"/><path class="a" d="M17,18.333h-.051a1.38,1.38,0,0,1-1.049-.55l-2.338-3.117H9.208A3.212,3.212,0,0,1,6,11.458V3.208A3.212,3.212,0,0,1,9.208,0H24.792A3.212,3.212,0,0,1,28,3.208v8.25a3.212,3.212,0,0,1-3.208,3.208h-3.96l-2.8,3.2A1.371,1.371,0,0,1,17,18.333Z" transform="translate(5)"/><ellipse class="a" cx="4" cy="3.5" rx="4" ry="3.5" transform="translate(4 24.339)"/><path class="a" d="M12.228,18.733a7.683,7.683,0,0,0-3.062,6.142v.458H1.375A1.385,1.385,0,0,1,0,23.958v-.917A5.039,5.039,0,0,1,5.042,18H9.625A5.009,5.009,0,0,1,12.228,18.733Z" transform="translate(0 15)"/><ellipse class="a" cx="4" cy="3.5" rx="4" ry="3.5" transform="translate(32 24.339)"/><path class="a" d="M29.558,23.042v.917a1.385,1.385,0,0,1-1.375,1.375H20.392v-.458a7.683,7.683,0,0,0-3.062-6.142,5.009,5.009,0,0,1,2.6-.733h4.583A5.039,5.039,0,0,1,29.558,23.042Z" transform="translate(14.442 15)"/><ellipse class="a" cx="5.5" cy="5.5" rx="5.5" ry="5.5" transform="translate(16.5 21.083)"/><path class="a" d="M21.625,19H11.542A5.046,5.046,0,0,0,6.5,24.042v2.75a1.376,1.376,0,0,0,1.375,1.375H25.292a1.376,1.376,0,0,0,1.375-1.375v-2.75A5.046,5.046,0,0,0,21.625,19Z" transform="translate(5.417 15.833)"/></g></svg>