<svg xmlns="http://www.w3.org/2000/svg" width="200.746" height="38.029" viewBox="0 0 200.746 38.029"><defs><style>.a{fill:#fff;}.a,.b{stroke:#707070;}.b{fill:#ffe400;}</style></defs><g transform="translate(0.591 0.5)"><path class="a" d="M33.255,7.331l1.014-5.957H14.479L9.9,28.579h20.29l1.07-6.242H18.944l.812-4.809h9.915l1-5.912H20.754l.718-4.285H33.255Z" transform="translate(17.535 2.434)"/><path class="a" d="M38.031,11.7a32.715,32.715,0,0,0-.546,4.415c0,.261.022.671.061,1.2a77.017,77.017,0,0,0-4.083-9.649l-3.021-6.3H23.016L18.434,28.579h6.7L27.4,15.247a19.1,19.1,0,0,0,.3-2.958c0-.23-.014-.549-.039-.948a33.758,33.758,0,0,0,2.733,6.791l5.255,10.45h6.128L46.36,1.377H39.78Z" transform="translate(32.661 2.434)"/><path class="a" d="M16.606,1.374H4.582L0,28.576H7.852L9.593,18.257h3.262l2.42,10.319h8.146L20.456,17.2q5.775-2.079,5.776-7.93A7.38,7.38,0,0,0,23.873,3.5C22.3,2.081,19.877,1.374,16.606,1.374Zm-2.952,11.22H10.547l.929-5.51h2.9c2.514,0,3.764.84,3.764,2.52Q18.136,12.589,13.654,12.594Z" transform="translate(0 2.434)"/><path class="a" d="M65.476,1.677,64.414,7.919h5.9l-3.551,21h7.994l3.551-21h6.073l1.053-6.242H65.476Z" transform="translate(114.128 2.971)"/><path class="a" d="M58.27,7.791q3.351,0,4.138,3.631l7.556-1.211q-2.341-8.739-11.6-8.739A12.745,12.745,0,0,0,47.871,6.41a18.305,18.305,0,0,0-3.928,11.783,12.767,12.767,0,0,0,1.294,5.918,10.922,10.922,0,0,0,3.678,4.116,10.811,10.811,0,0,0,6.12,1.588c3.429,0,5.909-1.181,7.47-3.523l.241,2.991h4L69.258,14.4H57.117l-.987,5.751h4.5Q59.383,23.5,56.411,23.5c-2.531,0-3.795-1.588-3.795-4.748A21.678,21.678,0,0,1,53.927,11.5C54.8,9.032,56.255,7.791,58.27,7.791Z" transform="translate(77.858 2.606)"/><path class="a" d="M71.813,11.683H64.678l1.677-9.99H58.364l-4.59,27.2h7.994l1.857-10.968h7.129L68.919,28.893h7.994l4.582-27.2H73.5Z" transform="translate(95.276 3)"/><path class="a" d="M42.056,1.435H33.694l-4.582,27.2H47.935L49.022,22.1H38.575Z" transform="translate(51.58 2.543)"/><path class="b" d="M42.324,0H52.582l-5.94,15.672h8.64L40.594,37.247l4.1-17.6H36.6Z" transform="translate(64.848)"/></g></svg>