<?xml version="1.0" encoding="utf-8"?>
<!-- Generator: Adobe Illustrator 16.0.0, SVG Export Plug-In . SVG Version: 6.00 Build 0)  -->
<!DOCTYPE svg PUBLIC "-//W3C//DTD SVG 1.1//EN" "http://www.w3.org/Graphics/SVG/1.1/DTD/svg11.dtd">
<svg version="1.1" id="Layer_1" xmlns="http://www.w3.org/2000/svg" xmlns:xlink="http://www.w3.org/1999/xlink" x="0px" y="0px"
	 width="71.999px" height="13.438px" viewBox="0 0 71.999 13.438" enable-background="new 0 0 71.999 13.438" xml:space="preserve">
<path fill="#FFFFFF" d="M18.324,3.523l0.366-2.149h-7.14l-1.653,9.815h7.32l0.386-2.252h-4.442l0.293-1.735h3.577l0.36-2.133h-3.577
	l0.259-1.546H18.324z"/>
<path fill="#FFFFFF" d="M25.504,5.1c-0.132,0.784-0.197,1.318-0.197,1.593c0,0.094,0.008,0.242,0.022,0.434
	c-0.226-0.745-0.718-1.91-1.473-3.481l-1.09-2.272h-2.679l-1.653,9.815h2.419l0.814-4.81c0.073-0.442,0.11-0.798,0.11-1.067
	c0-0.083-0.005-0.198-0.014-0.342c0.141,0.601,0.47,1.418,0.986,2.45l1.896,3.77h2.211l1.653-9.815h-2.374L25.504,5.1z"/>
<path fill="#FFFFFF" d="M5.991,1.374H1.653L0,11.188h2.833l0.628-3.723h1.177l0.873,3.723H8.45l-1.07-4.104
	c1.389-0.5,2.084-1.451,2.084-2.861c0-0.875-0.282-1.571-0.851-2.083C8.047,1.629,7.171,1.374,5.991,1.374z M4.926,5.422H3.805
	L4.14,3.434h1.045c0.907,0,1.358,0.303,1.358,0.909C6.543,5.061,6.005,5.422,4.926,5.422z"/>
<path fill="#FFFFFF" d="M64.797,1.677l-0.383,2.252h2.129l-1.281,7.577h2.884l1.281-7.577h2.191l0.38-2.252H64.797z"/>
<path fill="#FFFFFF" d="M49.112,3.751c0.806,0,1.304,0.437,1.493,1.31l2.726-0.437c-0.563-2.102-1.958-3.153-4.185-3.153
	c-1.578,0-2.839,0.595-3.786,1.782c-0.946,1.185-1.417,2.603-1.417,4.251c0,0.817,0.155,1.529,0.467,2.135
	c0.313,0.606,0.755,1.101,1.327,1.485c0.569,0.381,1.307,0.573,2.208,0.573c1.237,0,2.132-0.426,2.695-1.271l0.087,1.079h1.442
	l0.907-5.369h-4.38L48.34,8.211h1.625c-0.301,0.804-0.808,1.207-1.524,1.207c-0.913,0-1.369-0.573-1.369-1.713
	c0-0.854,0.158-1.724,0.473-2.616C47.861,4.199,48.385,3.751,49.112,3.751z"/>
<path fill="#FFFFFF" d="M60.282,5.297h-2.574l0.605-3.604H55.43l-1.656,9.813h2.884l0.67-3.957h2.572l-0.662,3.957h2.884
	l1.653-9.813h-2.884L60.282,5.297z"/>
<path fill="#FFFFFF" d="M33.782,1.435h-3.017l-1.653,9.812h6.791l0.392-2.355h-3.769L33.782,1.435z"/>
<path fill="#FFE400" d="M38.665,0h3.701l-2.143,5.654h3.117l-5.299,7.784l1.48-6.351H36.6L38.665,0z"/>
</svg>
