<svg xmlns="http://www.w3.org/2000/svg" width="19.583" height="14.667" viewBox="0 0 19.583 14.667"><defs><style>.a{fill:#fff;}</style></defs><g transform="translate(0 -64.267)"><path class="a" d="M17.781,64.267H1.8a1.8,1.8,0,0,0,0,3.605H17.781a1.8,1.8,0,0,0,0-3.605Z" transform="translate(0)"/><path class="a" d="M17.781,208.867H1.8a1.8,1.8,0,0,0,0,3.605H17.781a1.8,1.8,0,0,0,0-3.605Z" transform="translate(0 -139.069)"/><path class="a" d="M17.781,353.467H1.8a1.8,1.8,0,0,0,0,3.605H17.781a1.8,1.8,0,0,0,0-3.605Z" transform="translate(0 -278.139)"/></g></svg>